<svg width="21" height="16" viewBox="0 0 21 16" fill="none" xmlns="http://www.w3.org/2000/svg">
  <!-- Hintergrundkreis ohne Abstand zu den Außenrändern -->
  <circle cx="10.5" cy="8" r="8" fill="#FFA800"/>

  <!-- Neues Symbol (weiß, minimal nach links verschoben) -->
  <g transform="translate(5.8, 4)"> 
    <path d="M9 3H0.5C0.37 3 0.25 2.95 0.16 2.86C0.07 2.77 0 2.64 0 2.5C0 2.36 0.07 2.23 0.16 2.14C0.25 2.05 0.37 2 0.5 2H9C9.13 2 9.25 2.05 9.34 2.14C9.43 2.23 9.5 2.36 9.5 2.5C9.5 2.64 9.43 2.77 9.34 2.86C9.25 2.95 9.13 3 9 3Z" fill="white"/>
    <path d="M9 6H0.5C0.37 6 0.25 5.95 0.16 5.86C0.07 5.77 0 5.64 0 5.5C0 5.36 0.07 5.23 0.16 5.14C0.25 5.05 0.37 5 0.5 5H9C9.13 5 9.25 5.05 9.34 5.14C9.43 5.23 9.5 5.36 9.5 5.5C9.5 5.64 9.43 5.77 9.34 5.86C9.25 5.95 9.13 6 9 6Z" fill="white"/>
  </g>
</svg>
